<svg width="327" height="1715" viewBox="0 0 327 1715" fill="none" xmlns="http://www.w3.org/2000/svg">
<line x1="0.88049" y1="138.514" x2="325.88" y2="58.5145" stroke="black"/>
<line x1="0.88049" y1="276.514" x2="325.88" y2="196.514" stroke="black"/>
<line x1="0.88049" y1="414.514" x2="325.88" y2="334.514" stroke="black"/>
<line x1="0.88049" y1="552.514" x2="325.88" y2="472.514" stroke="black"/>
<line x1="0.88049" y1="690.514" x2="325.88" y2="610.514" stroke="black"/>
<line x1="0.88049" y1="828.514" x2="325.88" y2="748.514" stroke="black"/>
<line x1="0.88049" y1="966.514" x2="325.88" y2="886.514" stroke="black"/>
<line x1="0.88049" y1="1104.51" x2="325.88" y2="1024.51" stroke="black"/>
<line x1="0.88049" y1="1242.51" x2="325.88" y2="1162.51" stroke="black"/>
<line x1="0.88049" y1="1380.51" x2="325.88" y2="1300.51" stroke="black"/>
<line x1="0.88049" y1="1518.51" x2="325.88" y2="1438.51" stroke="black"/>
<line x1="0.88049" y1="1656.51" x2="325.88" y2="1576.51" stroke="black"/>
<line x1="1.08784" y1="0.507777" x2="326.088" y2="58.5078" stroke="black"/>
<line x1="1.08784" y1="138.508" x2="326.088" y2="196.508" stroke="black"/>
<line x1="1.08784" y1="276.508" x2="326.088" y2="334.508" stroke="black"/>
<line x1="1.08784" y1="414.508" x2="326.088" y2="472.508" stroke="black"/>
<line x1="1.08784" y1="552.508" x2="326.088" y2="610.508" stroke="black"/>
<line x1="1.08784" y1="690.508" x2="326.088" y2="748.508" stroke="black"/>
<line x1="1.08784" y1="828.508" x2="326.088" y2="886.508" stroke="black"/>
<line x1="1.08784" y1="966.508" x2="326.088" y2="1024.51" stroke="black"/>
<line x1="1.08784" y1="1104.51" x2="326.088" y2="1162.51" stroke="black"/>
<line x1="1.08784" y1="1242.51" x2="326.088" y2="1300.51" stroke="black"/>
<line x1="1.08784" y1="1380.51" x2="326.088" y2="1438.51" stroke="black"/>
<line x1="1.08784" y1="1518.51" x2="326.088" y2="1576.51" stroke="black"/>
<line x1="1.08784" y1="1656.51" x2="326.088" y2="1714.51" stroke="black"/>
</svg>
